<svg width="768" height="475" aria-label="A chart." style="overflow: hidden;"><defs id="defs"><clipPath id="_ABSTRACT_RENDERER_ID_922"><rect x="147" y="91" width="475" height="294"></rect></clipPath></defs><rect x="0" y="0" width="768" height="475" stroke="none" stroke-width="0" fill="#ffffff"></rect><g><text text-anchor="start" x="147" y="65.6" font-family="Arial" font-size="16" font-weight="bold" stroke="none" stroke-width="0" fill="#000000">Experimento 2: tempo de execução por número de threads</text></g><g><rect x="147" y="91" width="475" height="294" stroke="none" stroke-width="0" fill-opacity="0" fill="#ffffff"></rect><g clip-path="url(https://docs.google.com/spreadsheets/d/1gU6nUHdsR8GRN4bPke11YU73u6OS8D4AM-nnorKCwPM/edit#_ABSTRACT_RENDERER_ID_922)"><g><rect x="147" y="384" width="475" height="1" stroke="none" stroke-width="0" fill="#cccccc"></rect><rect x="147" y="311" width="475" height="1" stroke="none" stroke-width="0" fill="#cccccc"></rect><rect x="147" y="238" width="475" height="1" stroke="none" stroke-width="0" fill="#cccccc"></rect><rect x="147" y="164" width="475" height="1" stroke="none" stroke-width="0" fill="#cccccc"></rect><rect x="147" y="91" width="475" height="1" stroke="none" stroke-width="0" fill="#cccccc"></rect></g><g><rect x="150" y="129" width="9" height="255" stroke="none" stroke-width="0" fill="#cc4125"></rect><rect x="165" y="252" width="9" height="132" stroke="none" stroke-width="0" fill="#cc4125"></rect><rect x="180" y="293" width="9" height="91" stroke="none" stroke-width="0" fill="#cc4125"></rect><rect x="194" y="312" width="9" height="72" stroke="none" stroke-width="0" fill="#cc4125"></rect><rect x="209" y="306" width="9" height="78" stroke="none" stroke-width="0" fill="#cc4125"></rect><rect x="224" y="319" width="9" height="65" stroke="none" stroke-width="0" fill="#cc4125"></rect><rect x="239" y="327" width="9" height="57" stroke="none" stroke-width="0" fill="#cc4125"></rect><rect x="254" y="332" width="9" height="52" stroke="none" stroke-width="0" fill="#cc4125"></rect><rect x="268" y="321" width="9" height="63" stroke="none" stroke-width="0" fill="#cc4125"></rect><rect x="283" y="323" width="9" height="61" stroke="none" stroke-width="0" fill="#cc4125"></rect><rect x="298" y="325" width="9" height="59" stroke="none" stroke-width="0" fill="#cc4125"></rect><rect x="313" y="329" width="9" height="55" stroke="none" stroke-width="0" fill="#cc4125"></rect><rect x="328" y="328" width="9" height="56" stroke="none" stroke-width="0" fill="#cc4125"></rect><rect x="342" y="329" width="9" height="55" stroke="none" stroke-width="0" fill="#cc4125"></rect><rect x="357" y="331" width="9" height="53" stroke="none" stroke-width="0" fill="#cc4125"></rect><rect x="372" y="332" width="9" height="52" stroke="none" stroke-width="0" fill="#cc4125"></rect><rect x="387" y="327" width="9" height="57" stroke="none" stroke-width="0" fill="#cc4125"></rect><rect x="402" y="328" width="9" height="56" stroke="none" stroke-width="0" fill="#cc4125"></rect><rect x="417" y="329" width="9" height="55" stroke="none" stroke-width="0" fill="#cc4125"></rect><rect x="431" y="331" width="9" height="53" stroke="none" stroke-width="0" fill="#cc4125"></rect><rect x="446" y="330" width="9" height="54" stroke="none" stroke-width="0" fill="#cc4125"></rect><rect x="461" y="331" width="9" height="53" stroke="none" stroke-width="0" fill="#cc4125"></rect><rect x="476" y="331" width="9" height="53" stroke="none" stroke-width="0" fill="#cc4125"></rect><rect x="491" y="332" width="9" height="52" stroke="none" stroke-width="0" fill="#cc4125"></rect><rect x="505" y="329" width="9" height="55" stroke="none" stroke-width="0" fill="#cc4125"></rect><rect x="520" y="330" width="9" height="54" stroke="none" stroke-width="0" fill="#cc4125"></rect><rect x="535" y="331" width="9" height="53" stroke="none" stroke-width="0" fill="#cc4125"></rect><rect x="550" y="331" width="9" height="53" stroke="none" stroke-width="0" fill="#cc4125"></rect><rect x="565" y="331" width="9" height="53" stroke="none" stroke-width="0" fill="#cc4125"></rect><rect x="579" y="332" width="9" height="52" stroke="none" stroke-width="0" fill="#cc4125"></rect><rect x="594" y="332" width="9" height="52" stroke="none" stroke-width="0" fill="#cc4125"></rect><rect x="609" y="333" width="9" height="51" stroke="none" stroke-width="0" fill="#cc4125"></rect></g><g><rect x="147" y="384" width="475" height="1" stroke="none" stroke-width="0" fill="#333333"></rect></g></g><g></g><g><g><text text-anchor="end" x="157.35625" y="405.24352447854375" font-family="Arial" font-size="14" transform="rotate(-30 157.35625 405.24352447854375)" stroke="none" stroke-width="0" fill="#222222">1</text></g><g><text text-anchor="end" x="201.79375" y="405.24352447854375" font-family="Arial" font-size="14" transform="rotate(-30 201.79375 405.24352447854375)" stroke="none" stroke-width="0" fill="#222222">4</text></g><g><text text-anchor="end" x="246.23125" y="405.24352447854375" font-family="Arial" font-size="14" transform="rotate(-30 246.23125 405.24352447854375)" stroke="none" stroke-width="0" fill="#222222">7</text></g><g><text text-anchor="end" x="290.66875" y="405.24352447854375" font-family="Arial" font-size="14" transform="rotate(-30 290.66875 405.24352447854375)" stroke="none" stroke-width="0" fill="#222222">10</text></g><g><text text-anchor="end" x="335.10625" y="405.24352447854375" font-family="Arial" font-size="14" transform="rotate(-30 335.10625 405.24352447854375)" stroke="none" stroke-width="0" fill="#222222">13</text></g><g><text text-anchor="end" x="379.54375" y="405.24352447854375" font-family="Arial" font-size="14" transform="rotate(-30 379.54375 405.24352447854375)" stroke="none" stroke-width="0" fill="#222222">16</text></g><g><text text-anchor="end" x="423.98125" y="405.24352447854375" font-family="Arial" font-size="14" transform="rotate(-30 423.98125 405.24352447854375)" stroke="none" stroke-width="0" fill="#222222">19</text></g><g><text text-anchor="end" x="468.41875" y="405.24352447854375" font-family="Arial" font-size="14" transform="rotate(-30 468.41875 405.24352447854375)" stroke="none" stroke-width="0" fill="#222222">22</text></g><g><text text-anchor="end" x="512.85625" y="405.24352447854375" font-family="Arial" font-size="14" transform="rotate(-30 512.85625 405.24352447854375)" stroke="none" stroke-width="0" fill="#222222">25</text></g><g><text text-anchor="end" x="557.29375" y="405.24352447854375" font-family="Arial" font-size="14" transform="rotate(-30 557.29375 405.24352447854375)" stroke="none" stroke-width="0" fill="#222222">28</text></g><g><text text-anchor="end" x="601.73125" y="405.24352447854375" font-family="Arial" font-size="14" transform="rotate(-30 601.73125 405.24352447854375)" stroke="none" stroke-width="0" fill="#222222">31</text></g><g><text text-anchor="end" x="133" y="389.4" font-family="Arial" font-size="14" stroke="none" stroke-width="0" fill="#444444">0</text></g><g><text text-anchor="end" x="133" y="316.15" font-family="Arial" font-size="14" stroke="none" stroke-width="0" fill="#444444">6</text></g><g><text text-anchor="end" x="133" y="242.9" font-family="Arial" font-size="14" stroke="none" stroke-width="0" fill="#444444">12</text></g><g><text text-anchor="end" x="133" y="169.65" font-family="Arial" font-size="14" stroke="none" stroke-width="0" fill="#444444">18</text></g><g><text text-anchor="end" x="133" y="96.4" font-family="Arial" font-size="14" stroke="none" stroke-width="0" fill="#444444">24</text></g></g></g><g><g><text text-anchor="middle" x="384.5" y="449.9" font-family="Arial" font-size="14" font-style="italic" stroke="none" stroke-width="0" fill="#222222">Número de threads</text></g><g><text text-anchor="middle" x="63.4" y="238" font-family="Arial" font-size="14" font-style="italic" transform="rotate(-90 63.4 238)" stroke="none" stroke-width="0" fill="#222222">Tempo de execução (segundos)</text></g></g><g></g></svg>